<svg id="ZLINSKY-KRAJ_logo" xmlns="http://www.w3.org/2000/svg" width="203.35" height="59" viewBox="0 0 203.35 59">
  <path id="Path_22" data-name="Path 22" d="M862.478,661.815l-.115-.229,13.175-13.748V642h-21.08v5.843h6.759c1.719,0,3.9-.115,5.957-.115l.114.229L854.115,661.7v5.728h21.652V661.7h-8.592C865.8,661.7,864.082,661.815,862.478,661.815Z" transform="translate(-854.115 -625.957)"/>
  <rect id="Rectangle_4" data-name="Rectangle 4" width="5.843" height="26.12" transform="translate(24.402 15.466)"/>
  <path id="Path_23" data-name="Path 23" d="M898.4,639.236l-10.082,3.781L889.461,646l10.2-3.437Z" transform="translate(-855.665 -625.832)"/>
  <rect id="Rectangle_5" data-name="Rectangle 5" width="5.957" height="20.163" transform="translate(34.14 21.423)"/>
  <path id="Path_24" data-name="Path 24" d="M912.568,647.036c-3.208,0-5.614,1.6-6.53,6.186v-5.614H900.2v20.049h5.843V655.972a3.32,3.32,0,0,1,3.666-3.666c2.406,0,3.322,1.489,3.322,3.666v11.685h5.728v-13.4C918.754,649.9,916.921,647.036,912.568,647.036Z" transform="translate(-856.203 -626.186)"/>
  <path id="Path_25" data-name="Path 25" d="M1018.567,647.473v-.115h-6.645l-6.3,7.9h-.344V641.516h-5.843v25.891h5.843v-8.019h.229l6.645,8.019h6.874l-8.821-10.2Z" transform="translate(-860.699 -625.936)"/>
  <path id="Path_26" data-name="Path 26" d="M1026.878,654.854v-7.217h-5.843v20.049h5.843v-9.509c0-2.979.917-3.9,4.239-3.9h3.208v-6.645h-1.948C1029.513,647.636,1027.909,648.667,1026.878,654.854Z" transform="translate(-861.678 -626.213)"/>
  <path id="Path_27" data-name="Path 27" d="M1050.241,653.108h-.115c-.917-4.353-3.093-6.072-6.645-6.072-4.812,0-7.447,4.01-7.447,10.769,0,6.53,2.521,10.54,7.332,10.54,3.437,0,5.728-1.833,6.759-6.072h.115v5.385h5.728V647.609h-5.728Zm0,4.812c0,3.322-1.6,5.155-4.239,5.155-2.979,0-4.239-1.948-4.239-5.27,0-3.437,1.26-5.614,4.239-5.614,2.635,0,4.239,2.062,4.239,5.384Z" transform="translate(-862.358 -626.186)"/>
  <path id="Path_28" data-name="Path 28" d="M1060.745,667c0,1.146-.344,2.062-1.489,2.062a2.238,2.238,0,0,1-.8-.115l-.458,4.812a6.758,6.758,0,0,0,1.6.229c5.041,0,6.988-3.093,6.988-7.9V647.636h-5.843Z" transform="translate(-863.352 -626.213)"/>
  <rect id="Rectangle_6" data-name="Rectangle 6" width="6.072" height="3.895" transform="translate(197.278 15.466)"/>
  <path id="Path_29" data-name="Path 29" d="M953,665.118c0,.458.229.916,1.031.916a1.579,1.579,0,0,0,1.719-1.489v-.229h-1.6C953.339,664.316,953,664.545,953,665.118Z" transform="translate(-858.595 -626.968)"/>
  <path id="Path_30" data-name="Path 30" d="M968.279,665.8c1.146,0,1.6-.687,1.6-2.062,0-1.489-.458-2.062-1.6-2.062a1.634,1.634,0,0,0-1.6,1.833v.458A1.7,1.7,0,0,0,968.279,665.8Z" transform="translate(-859.215 -626.849)"/>
  <path id="Path_31" data-name="Path 31" d="M975.719,661.436c-.916,0-1.489.573-1.6,1.719h3.208C977.323,662.009,976.75,661.436,975.719,661.436Z" transform="translate(-859.552 -626.838)"/>
  <path id="Path_32" data-name="Path 32" d="M952.275,677.478c0,.458.344.917,1.146.917a1.579,1.579,0,0,0,1.719-1.489v-.229h-1.6C952.733,676.676,952.275,676.905,952.275,677.478Z" transform="translate(-858.563 -627.529)"/>
  <path id="Path_33" data-name="Path 33" d="M932.111,646.161a4.7,4.7,0,0,0-1.26-.115c-5.728,0-8.478,2.406-8.478,6.186,0,3.322,1.948,5.27,7.561,6.416a19.1,19.1,0,0,1,2.177.573V663h-.687c-2.406,0-3.551-1.26-4.124-3.551l-5.384,1.031c.573,3.781,2.635,6.874,9.394,6.874a1.7,1.7,0,0,0,.8-.114V684.2h59v-59h-59Zm0,8.363c-3.551-.687-4.01-1.489-4.01-2.52,0-1.146.917-1.718,2.635-1.718a4.723,4.723,0,0,1,1.375.115Zm33.338,22.454H963.96v-6.416h1.489Zm.115-7.447h-1.6v-1.146h1.6Zm11.571-5.614,4.01-3.9-.115-.115a16.134,16.134,0,0,1-2.406.115h-1.375v-1.146h5.5v1.26l-4.01,3.9.114.115a13.866,13.866,0,0,1,2.177-.115h1.833v1.146h-5.728Zm-3.666-5.27c1.948,0,2.864,1.146,2.864,2.979v.8h-4.7a1.655,1.655,0,0,0,1.833,1.719,1.474,1.474,0,0,0,1.6-1.031l1.146.344c-.229,1.146-1.031,1.948-2.75,1.948a2.985,2.985,0,0,1-3.208-3.322C970.261,659.909,971.406,658.648,973.469,658.648Zm-.687,14.206-1.375.229a1.421,1.421,0,0,0-1.489-1.375q-1.719,0-1.719,2.062c0,1.375.573,2.177,1.719,2.177,1.031,0,1.375-.687,1.6-1.489l1.375.344a2.794,2.794,0,0,1-2.979,2.406c-2.062,0-3.208-1.146-3.208-3.322s1.26-3.437,3.208-3.437A2.55,2.55,0,0,1,972.781,672.854Zm-9.623-16.383h1.489v4.01h.115a2.2,2.2,0,0,1,2.177-1.833c1.489,0,2.406,1.26,2.406,3.437s-.917,3.322-2.406,3.322a2.313,2.313,0,0,1-2.177-1.833h-.115v1.6h-1.489Zm-.687,16.268v4.239h-1.489v-3.9a1.114,1.114,0,0,0-1.146-1.26,1.537,1.537,0,0,0-1.718,1.6v3.551h-1.375v-6.416h1.375v1.719h.115a2.412,2.412,0,0,1,2.291-1.833C961.9,670.448,962.47,671.365,962.47,672.74Zm-5.155-16.153h1.6v1.146h-1.6Zm-1.031,9.509c.115,0,.229.115.458.115.458,0,.687-.458.687-.916v-6.416h1.489v6.186c0,1.489-.687,2.406-2.177,2.406-.229,0-.344-.115-.573-.115Zm-3.208-6.3a1.249,1.249,0,0,0-1.26,1.146l-1.375-.229a2.483,2.483,0,0,1,2.75-2.062c1.833,0,2.635.917,2.635,2.52v4.01h-1.375v-1.489h-.115a2.339,2.339,0,0,1-2.291,1.719,1.719,1.719,0,0,1-1.948-1.833c0-1.146.687-1.948,2.406-1.948h1.833v-.458C954.337,660.367,953.993,659.794,953.076,659.794Zm-.458,10.654c1.833,0,2.635.917,2.635,2.52v4.01h-1.375v-1.489h-.229a2.208,2.208,0,0,1-2.177,1.718,1.719,1.719,0,0,1-1.948-1.833c0-1.146.687-1.948,2.291-1.948h1.948v-.458c0-.8-.344-1.375-1.26-1.375a1.452,1.452,0,0,0-1.375,1.146l-1.375-.229C949.983,671.25,950.9,670.448,952.618,670.448Zm-6.759-11.571h1.375v1.833h.115c.458-1.489,1.031-1.948,1.948-1.948h.229v1.6h-.344c-1.375,0-1.833.458-1.833,1.833v2.979h-1.489Zm-.573,11.685h1.375v1.948h.115c.344-1.489,1.031-1.948,1.948-1.948h.229v1.6h-.344c-1.375,0-1.833.458-1.833,1.833v2.979h-1.489Zm-7.218-13.518h1.6v3.666h.573l2.864-3.666h1.833v.115l-3.551,4.124,3.666,3.781v.115h-1.833l-2.979-3.208h-.573v3.208h-1.6Zm0,11.227h1.375v4.01h.115a2.317,2.317,0,0,1,2.291-1.833c1.26,0,1.948.917,1.948,2.291v4.239h-1.489v-3.9a1.114,1.114,0,0,0-1.146-1.26,1.537,1.537,0,0,0-1.719,1.6v3.551h-1.375Z" transform="translate(-857.187 -625.196)"/>
</svg>
