<svg xmlns="http://www.w3.org/2000/svg" width="300.435" height="85.799" viewBox="0 0 300.435 85.799">
  <g id="ZLIN_logo" data-name="ZLIN logo" transform="translate(-140 -60.201)">
    <path id="Path_123060" data-name="Path 123060" d="M4.043-8.866C1.937-8.866.559-7.085.559-4.342S1.937.2,4.056.2a3.012,3.012,0,0,0,2.587-1.3,5.444,5.444,0,0,0,.91-3.172C7.553-7.1,6.2-8.866,4.043-8.866Zm.013.7C5.668-8.164,6.7-6.682,6.7-4.381c0,2.4-1,3.874-2.639,3.874S1.417-1.976,1.417-4.342,2.431-8.164,4.056-8.164ZM9.893,0V-4.29h3.7v-.7h-3.7V-7.943h4.368v-.728H9.048V0Zm6.4,0V-8.671h-.845V0Zm8.229-6.214a3.217,3.217,0,0,0-3.185-2.652c-2.158,0-3.536,1.755-3.536,4.524S19.162.2,21.307.2c1.625,0,2.743-.975,3.211-2.808l-.754-.247c-.377,1.508-1.248,2.353-2.457,2.353-1.612,0-2.652-1.5-2.652-3.809,0-2.379,1.027-3.848,2.665-3.848,1.17,0,2,.754,2.379,2.171ZM26.546,0V-8.671H25.7V0ZM34,0,31.213-8.671h-.9L27.534,0h.741l.858-2.717h3.12L33.111,0ZM32.019-3.419H29.354L30.68-7.631Zm.533-7.943L30.03-9.88l.273.416L32.929-10.7ZM39.988-.728h-4.16V-8.671h-.845V0h5ZM46.15,0h1.118V-8.671h-.793v7.514L42.094-8.671H40.976V0h.793V-7.514Zm4.069,0V-8.671h-.845V0Zm.923-11.375-2.21,1.43.286.429,2.314-1.235Zm3.406,9.191A3.167,3.167,0,0,0,57.915.182c1.911,0,3.133-1,3.133-2.574,0-1.157-.65-1.872-2.015-2.249l-1.768-.494c-1.04-.286-1.456-.689-1.456-1.456,0-.936.793-1.56,1.963-1.56a2.085,2.085,0,0,1,2.184,1.534l.767-.208a2.8,2.8,0,0,0-2.964-2.028c-1.677,0-2.808.949-2.808,2.327a2.1,2.1,0,0,0,.7,1.612,3.273,3.273,0,0,0,1.43.637l1.7.455c.962.273,1.4.741,1.4,1.521,0,1.04-.923,1.781-2.236,1.781A2.525,2.525,0,0,1,55.38-2.366ZM67.08-8.671H61.152v.728H63.7V0h.845V-7.943H67.08ZM71.4-3.835,73.1,0h.949L72.241-3.978a2.318,2.318,0,0,0,1.651-2.366c0-1.508-.9-2.327-2.587-2.327H68.068V0h.845V-3.835ZM68.913-4.55V-7.943H71.37a1.484,1.484,0,0,1,1.664,1.625A1.6,1.6,0,0,1,71.24-4.55ZM80.925,0,78.143-8.671h-.9L74.464,0h.741l.858-2.717h3.12L80.041,0ZM78.949-3.419H76.284L77.61-7.631Zm.533-7.943L76.96-9.88l.273.416L79.859-10.7ZM87.087,0h1.118V-8.671h-.793v7.514L83.031-8.671H81.913V0h.793V-7.514Zm6.019-4.784L95.966,0h.923l-3.25-5.447,2.626-3.224h-.9L91.143-3.393V-8.671H90.3V0h.845V-2.366Zm7.462,1.105,2.925-4.992h-.741l-2.5,4.29L97.8-8.671h-.936l2.86,4.992V0h.845ZM6.851,10.24a2.681,2.681,0,0,0-.962-1.378A3.664,3.664,0,0,0,3.614,8.2a3.21,3.21,0,0,0-2.275.754,2.575,2.575,0,0,0-.884,2,2.212,2.212,0,0,0,1.053,1.976,5.813,5.813,0,0,0,2,.676c1.157.234,1.508.468,1.508.988,0,.559-.533.91-1.391.91A1.591,1.591,0,0,1,1.872,14.3L0,14.725a2.783,2.783,0,0,0,1.04,1.664,3.971,3.971,0,0,0,2.483.741,4.288,4.288,0,0,0,2.288-.559,2.815,2.815,0,0,0,1.274-2.314A2.425,2.425,0,0,0,5.967,12.2a6.211,6.211,0,0,0-2.275-.741c-.936-.182-1.248-.4-1.248-.91,0-.481.429-.767,1.183-.767a1.367,1.367,0,0,1,1.508,1.027Zm6.916-1.911H7.41v1.716H9.568V17h2.054V10.045h2.145Zm4.355,0H15.769L13,17h1.781l.546-1.781h2.8L18.655,17h2.184ZM15.808,13.62l.923-3.042.923,3.042ZM26.455,8.329H20.1v1.716h2.158V17H24.31V10.045h2.145Zm7.54,0H32.266v5.408c0,.741-.052,1.027-.247,1.274a1.646,1.646,0,0,1-1.274.468A1.45,1.45,0,0,1,29.523,15a2.03,2.03,0,0,1-.247-1.261V8.329h-2.2v5.408a3.258,3.258,0,0,0,.767,2.535,3.806,3.806,0,0,0,2.717.858,3.781,3.781,0,0,0,2.626-.806c.611-.546.806-1.17.806-2.587Zm6.968,0H34.606v1.716h2.158V17h2.054V10.045h2.145Zm4.355,0H42.965L40.2,17h1.781l.546-1.781h2.8L45.851,17h2.184ZM43,13.62l.923-3.042.923,3.042Zm2.847-8.1-2.73,1.326.312.754,2.834-.975ZM50.8,13.568H52.26L53.586,17h2.249l-1.6-3.822a2.425,2.425,0,0,0,.845-.559,2.494,2.494,0,0,0,.65-1.69,2.653,2.653,0,0,0-.91-2.015,3.219,3.219,0,0,0-2.249-.585H48.763V17H50.8Zm0-3.692H52c.819,0,.975.026,1.235.221a1.106,1.106,0,0,1,.4.858,1.151,1.151,0,0,1-.507.949c-.247.156-.4.182-1.079.182H50.8ZM63.7,8.329H62.127v4.537a5.7,5.7,0,0,0,.039.572L59.215,8.329H57.031V17H58.6V11.813c0-.052-.013-.182-.026-.377,0-.039,0-.156-.013-.3L61.958,17H63.7Zm3.562,0H65.234V17h2.028Zm.533-2.808-2.6,1.326.325.754,2.691-.975Zm7.683,2.808H73.489v3.38H70.772V8.329H68.783V17h1.989V13.425h2.717V17h1.989Zm4.849-.13A3.346,3.346,0,0,0,77.571,9.46a5.2,5.2,0,0,0-.975,3.172,5.34,5.34,0,0,0,1,3.25,3.194,3.194,0,0,0,2.665,1.248,3.373,3.373,0,0,0,2.769-1.261,5.53,5.53,0,0,0,.962-3.146,5.516,5.516,0,0,0-.988-3.263A3.113,3.113,0,0,0,80.327,8.2ZM80.314,9.85c1.053,0,1.56.936,1.56,2.821s-.507,2.808-1.547,2.808c-1.079,0-1.612-.936-1.612-2.821a5.083,5.083,0,0,1,.377-2.054A1.254,1.254,0,0,1,80.314,9.85ZM91.988,17h1.391l2.184-7.072V17H97.6V8.329H94.445l-1.612,5.187L91.312,8.329H88.153V17h1.7V9.928Zm13.338-7.02V8.329h-6.2V17h6.2V15.284h-4.134v-1.9h3.25V11.761h-3.25V9.98ZM104.6,5.82l-1.339-.13-1.04.7-1.04-.7-1.326.13,2.366,1.82Zm7.709,4.42a2.681,2.681,0,0,0-.962-1.378A3.664,3.664,0,0,0,109.07,8.2a3.21,3.21,0,0,0-2.275.754,2.575,2.575,0,0,0-.884,2,2.212,2.212,0,0,0,1.053,1.976,5.813,5.813,0,0,0,2,.676c1.157.234,1.508.468,1.508.988,0,.559-.533.91-1.391.91a1.591,1.591,0,0,1-1.755-1.209l-1.872.429a2.783,2.783,0,0,0,1.04,1.664,3.971,3.971,0,0,0,2.483.741,4.288,4.288,0,0,0,2.288-.559,2.815,2.815,0,0,0,1.274-2.314,2.425,2.425,0,0,0-1.118-2.054,6.211,6.211,0,0,0-2.275-.741c-.936-.182-1.248-.4-1.248-.91,0-.481.429-.767,1.183-.767a1.367,1.367,0,0,1,1.508,1.027Zm6.916-1.911h-6.357v1.716h2.158V17h2.054V10.045h2.145Zm4.355,0h-2.353L118.456,17h1.781l.546-1.781h2.795L124.111,17H126.3Zm-2.314,5.291.923-3.042.923,3.042Zm15.041-3.8V8.329h-6.552V9.967h4.069l-4.368,5.564V17h6.994V15.349h-4.524Zm3.12,5.46V8.329h-2.054V17h5.5V15.284Zm6.3-6.955H143.7V17h2.028Zm.533-2.808-2.6,1.326.325.754,2.691-.975Zm7.657,2.808h-1.573v4.537a5.7,5.7,0,0,0,.039.572l-2.951-5.109h-2.184V17h1.573V11.813c0-.052-.013-.182-.026-.377,0-.039,0-.156-.013-.3L152.178,17h1.742Zm5.8,0h-2.353L154.6,17h1.781l.546-1.781h2.795L160.251,17h2.184ZM157.4,13.62l.923-3.042.923,3.042Z" transform="translate(278 94)" fill="#fff"/>
    <g id="Group_88062" data-name="Group 88062" transform="translate(140 60.201)">
      <rect id="Rectangle_1" data-name="Rectangle 1" width="29.134" height="29.133" transform="translate(0 56.666)" fill="#fad103"/>
      <path id="Path_1" data-name="Path 1" d="M506.439,425.542a5.3,5.3,0,1,0-5.3-5.3,5.3,5.3,0,0,0,5.3,5.3" transform="translate(-392.128 -372.85)" fill="#fad103"/>
      <path id="Path_2" data-name="Path 2" d="M425.127,433.693v-6.66L443.185,403.8H426.164v-7.623h28.2l-.074,6.512-18.131,22.868H454.36v8.141Z" transform="translate(-425.127 -381)" fill="#fff"/>
      <path id="Path_3" data-name="Path 3" d="M459.948,438.285c-5.847,0-10.212-2.515-10.212-9.547V385.593h8.807v42.555c0,1.331.74,1.923,2.147,1.923h3.255v8.215Z" transform="translate(-414.445 -385.593)" fill="#fff"/>
      <path id="Path_4" data-name="Path 4" d="M469.218,395.731H461.6l6.809-9.622h11.321Zm-5.328,42.331V400.54H472.7v37.521Z" transform="translate(-409.296 -385.369)" fill="#fff"/>
      <path id="Path_5" data-name="Path 5" d="M493.483,395.863a12.976,12.976,0,0,1,13.174,13.172v24.792H497.85V411.552c0-4.515-2.96-7.179-6.809-7.179-3.922,0-6.808,2.665-6.808,7.179v22.275h-8.807V396.306h8.807v2.887a13.35,13.35,0,0,1,9.25-3.33" transform="translate(-403.292 -381.135)" fill="#fff"/>
    </g>
  </g>
</svg>
